<?xml version="1.0" encoding="iso-8859-1"?>
<!-- Uploaded to: SVG Repo, www.svgrepo.com, Generator: SVG Repo Mixer Tools -->
<svg height="800px" width="800px" version="1.1" id="Layer_1" xmlns="http://www.w3.org/2000/svg" xmlns:xlink="http://www.w3.org/1999/xlink" 
	 viewBox="0 0 512.154 512.154" xml:space="preserve">
<g transform="translate(1 1)">
	<path style="fill:#FD9808;" d="M475.237,50.277L414.65,203.024c-7.68,17.92-18.773,33.28-33.28,45.227v15.36
		c2.56-0.853,5.12-2.56,7.68-3.413c23.04-11.947,40.96-33.28,50.347-57.173l61.44-152.747H475.237z"/>
	<g>
		<path style="fill:#FFDD09;" d="M374.544,50.277l-34.133,51.2h-17.067v34.133h34.133v128c2.56-0.853,5.12-2.56,7.68-3.413
			c23.04-11.947,40.96-33.28,50.347-57.173l61.44-152.747H374.544z"/>
		<path style="fill:#FFDD09;" d="M152.677,135.61h34.133v-34.133h-17.067l-34.133-51.2H33.21l60.587,152.747
			c9.387,24.747,27.307,45.227,50.347,57.173c2.56,1.707,5.12,2.56,7.68,3.413v-128H152.677z"/>
		<path style="fill:#FFDD09;" d="M180.837,366.01c13.653,23.893,30.72,46.08,48.64,65.707l25.6,28.16l25.6-28.16
			c18.773-19.627,34.987-41.813,48.64-65.707H180.837z"/>
		<path style="fill:#FFDD09;" d="M220.944,366.01c10.24,15.36,21.333,29.867,33.28,42.667l0.853,0.853l0.853-0.853
			c11.947-12.8,23.04-27.307,33.28-42.667H220.944z"/>
	</g>
	<path style="fill:#FCC309;" d="M367.717,280.677c15.36-46.933,23.893-97.28,23.893-145.067L255.077,50.277L118.544,135.61l0,0
		c0,47.787,8.533,97.28,23.893,145.067H367.717z"/>
	<path style="fill:#FFDD09;" d="M331.024,280.677c15.36-41.813,23.893-85.333,25.6-126.293L255.077,91.237l-101.547,64
		c1.707,40.96,11.093,85.333,25.6,126.293h151.893V280.677z"/>
	<g>
		<polygon style="fill:#1CD759;" points="75.877,366.01 434.277,366.01 434.277,280.677 75.877,280.677 		"/>
		<polygon style="fill:#1CD759;" points="101.477,366.01 101.477,314.81 33.21,314.81 67.344,357.477 33.21,400.144 
			101.477,400.144 		"/>
	</g>
	<polygon style="fill:#FFFFFF;" points="33.21,314.81 7.61,314.81 41.744,357.477 7.61,400.144 33.21,400.144 67.344,357.477 	"/>
	<polygon style="fill:#1CD759;" points="408.677,366.01 408.677,314.81 476.944,314.81 442.81,357.477 476.944,400.144 
		408.677,400.144 	"/>
	<polygon style="fill:#15A143;" points="476.944,314.81 502.544,314.81 468.41,357.477 502.544,400.144 476.944,400.144 
		442.81,357.477 	"/>
	<path style="fill:#FFFFFF;" d="M93.797,203.024L33.21,50.277H7.61l60.587,152.747c9.387,24.747,27.307,45.227,50.347,57.173
		c2.56,1.707,5.12,2.56,7.68,3.413v-15.36C112.57,236.304,101.477,220.944,93.797,203.024"/>
	<path d="M434.277,374.544h-358.4c-5.12,0-8.533-3.413-8.533-8.533v-85.333c0-5.12,3.413-8.533,8.533-8.533h358.4
		c5.12,0,8.533,3.413,8.533,8.533v85.333C442.81,371.13,439.397,374.544,434.277,374.544z M84.41,357.477h341.333V289.21H84.41
		V357.477z"/>
	<path d="M101.477,408.677H7.61c-3.413,0-5.973-1.707-7.68-5.12c-1.707-2.56-0.853-6.827,0.853-9.387l29.867-36.693L0.784,319.93
		c-1.707-2.56-2.56-5.973-0.853-9.387c1.707-1.707,4.267-4.267,7.68-4.267h68.267c5.12,0,8.533,3.413,8.533,8.533v42.667h17.067
		c5.12,0,8.533,3.413,8.533,8.533v34.133C110.01,405.264,106.597,408.677,101.477,408.677z M25.53,391.61h67.413v-17.067H75.877
		c-5.12,0-8.533-3.413-8.533-8.533v-42.667H25.53l23.04,29.013c2.56,3.413,2.56,7.68,0,10.24L25.53,391.61z"/>
	<path d="M502.544,408.677h-93.867c-5.12,0-8.533-3.413-8.533-8.533V366.01c0-5.12,3.413-8.533,8.533-8.533h17.067V314.81
		c0-5.12,3.413-8.533,8.533-8.533h68.267c3.413,0,5.973,1.707,7.68,5.12c1.707,2.56,0.853,6.827-0.853,9.387l-29.867,36.693
		l29.867,37.547c1.707,2.56,2.56,5.973,0.853,9.387C508.517,406.97,505.957,408.677,502.544,408.677z M417.21,391.61h67.413
		l-23.04-29.013c-2.56-3.413-2.56-7.68,0-10.24l23.04-29.013H442.81v42.667c0,5.12-3.413,8.533-8.533,8.533H417.21V391.61z"/>
	<path d="M67.344,92.944h-46.08c-5.12,0-8.533-3.413-8.533-8.533c0-5.12,3.413-8.533,8.533-8.533h46.08
		c5.12,0,8.533,3.413,8.533,8.533C75.877,89.53,72.464,92.944,67.344,92.944z"/>
	<path d="M75.877,127.077h-40.96c-5.12,0-8.533-3.413-8.533-8.533s3.413-8.533,8.533-8.533h40.96c5.12,0,8.533,3.413,8.533,8.533
		S80.997,127.077,75.877,127.077z"/>
	<path d="M92.944,161.21H48.57c-5.12,0-8.533-3.413-8.533-8.533c0-5.12,3.413-8.533,8.533-8.533h44.373
		c5.12,0,8.533,3.413,8.533,8.533C101.477,157.797,98.064,161.21,92.944,161.21z"/>
	<path d="M488.89,92.944h-46.08c-5.12,0-8.533-3.413-8.533-8.533c0-5.12,3.413-8.533,8.533-8.533h46.08
		c5.12,0,8.533,3.413,8.533,8.533C497.424,89.53,494.01,92.944,488.89,92.944z"/>
	<path d="M475.237,127.077h-40.96c-5.12,0-8.533-3.413-8.533-8.533s3.413-8.533,8.533-8.533h40.96c5.12,0,8.533,3.413,8.533,8.533
		S480.357,127.077,475.237,127.077z"/>
	<path d="M461.584,161.21H417.21c-5.12,0-8.533-3.413-8.533-8.533c0-5.12,3.413-8.533,8.533-8.533h44.373
		c5.12,0,8.533,3.413,8.533,8.533C470.117,157.797,466.704,161.21,461.584,161.21z"/>
	<path d="M137.317,271.29c-0.853,0-0.853,0-1.707,0c-23.04-4.267-43.52-16.213-58.027-34.133
		c-5.973-7.68-11.093-16.213-14.507-24.747L-0.07,53.69c-1.707-2.56-0.853-5.973,0.853-7.68c1.707-1.707,4.267-4.267,6.827-4.267
		h128c2.56,0,5.12,0.853,6.827,3.413l40.96,49.493c1.707,1.707,2.56,4.267,1.707,6.827c0,2.56-1.707,4.267-4.267,5.973
		l-53.76,34.133c0.853,38.4,6.827,80.213,17.92,119.467c0.853,2.56,0,5.973-1.707,7.68
		C141.584,269.584,139.024,271.29,137.317,271.29z M20.41,58.81l58.88,146.773c2.56,6.827,6.827,13.653,11.947,19.627
		c8.533,11.093,20.48,19.627,34.133,24.747c-10.24-37.547-15.36-76.8-15.36-114.347c0-2.56,1.707-5.973,4.267-6.827l49.493-30.72
		L131.344,58.81H20.41z"/>
	<path d="M372.837,271.29c-2.56,0-5.12-0.853-5.973-2.56c-1.707-2.56-2.56-5.12-1.707-7.68
		c11.093-39.253,17.92-81.067,17.92-119.467l-53.76-34.133c-1.707-1.707-3.413-3.413-4.267-5.973c0-2.56,0-5.12,1.707-6.827
		l40.96-49.493c1.707-1.707,4.267-3.413,6.827-3.413h128c2.56,0,5.12,1.707,6.827,3.413c1.707,2.56,1.707,5.12,0.853,7.68
		L447.077,212.41c-3.413,8.533-8.533,17.067-14.507,23.893c-14.507,17.92-34.987,29.867-58.027,34.133
		C374.544,270.437,373.69,271.29,372.837,271.29z M346.384,97.21l49.493,30.72c2.56,2.56,4.267,5.12,4.267,7.68
		c0,36.693-5.12,75.947-14.507,114.347c13.653-5.12,25.6-13.653,34.133-24.747c5.12-5.973,8.533-12.8,11.947-19.627L489.744,58.81
		H378.81L346.384,97.21z"/>
	<path d="M367.717,289.21h-225.28c-3.413,0-6.827-2.56-7.68-5.973C118.544,235.45,110.01,184.25,110.01,135.61
		c0-2.56,1.707-5.973,4.267-6.827L250.81,43.45c2.56-1.707,5.973-1.707,9.387,0l136.533,85.333c1.707,1.707,3.413,4.267,3.413,6.827
		c0,47.787-8.533,98.987-24.747,147.627C374.544,287.504,371.13,289.21,367.717,289.21z M149.264,272.144h212.48
		c13.653-43.52,21.333-88.747,21.333-131.413l-128-80.213l-128,80.213C127.93,183.397,134.757,228.624,149.264,272.144z"/>
	<path d="M255.077,468.41c-2.56,0-4.267-0.853-5.973-2.56l-25.6-28.16c-3.413-3.413-3.413-8.533,0-11.947
		c3.413-3.413,8.533-3.413,11.947,0l18.773,20.48l18.773-20.48c14.507-15.36,27.307-32.427,40.107-52.053H196.197
		c2.56,4.267,5.12,8.533,7.68,11.947c2.56,4.267,1.707,9.387-2.56,11.947c-4.267,2.56-9.387,1.707-11.947-2.56
		c-5.973-8.533-11.093-17.067-16.213-26.453c-1.707-2.56-1.707-5.973,0-8.533s4.267-2.56,7.68-2.56h148.48
		c3.413,0,5.973,0,7.68,2.56s1.707,5.973,0,8.533c-14.507,25.6-31.573,47.787-50.347,67.413l-25.6,28.16
		C258.49,467.557,257.637,468.41,255.077,468.41z"/>
	<path d="M255.077,418.064L255.077,418.064c-2.56,0-4.267-0.853-5.973-2.56c-12.8-13.653-23.893-28.16-34.987-44.373
		c-1.707-2.56-1.707-5.973,0-8.533c1.707-2.56,4.267-4.267,7.68-4.267h68.267c3.413,0,5.973,1.707,7.68,4.267s1.707,5.973,0,8.533
		c-11.093,16.213-22.187,30.72-34.133,43.52l-0.853,0.853C259.344,417.21,257.637,418.064,255.077,418.064z M237.157,374.544
		c5.973,7.68,11.947,15.36,17.92,22.187c5.973-6.827,11.947-14.507,17.92-22.187H237.157z"/>
	<path d="M331.024,289.21H179.13c-3.413,0-6.827-2.56-7.68-5.973c-15.36-41.813-23.893-87.04-26.453-128.853
		c0-3.413,1.707-5.973,4.267-7.68l101.547-64c2.56-1.707,5.973-1.707,9.387,0l101.547,64c2.56,1.707,4.267,4.267,4.267,7.68
		c-1.707,42.667-11.093,87.04-26.453,128.853C337.85,287.504,334.437,289.21,331.024,289.21z M185.104,272.144H325.05
		c12.8-37.547,20.48-75.947,23.04-113.493l-93.013-58.027l-93.013,58.027C164.624,196.197,172.304,235.45,185.104,272.144z"/>
	<path d="M220.944,412.944c0-5.12-3.413-8.533-8.533-8.533c-5.12,0-8.533,3.413-8.533,8.533s3.413,8.533,8.533,8.533
		C217.53,421.477,220.944,417.21,220.944,412.944"/>
</g>
</svg>